<?xml version="1.0" encoding="UTF-8" standalone="no"?>
<svg
   xmlns:dc="http://purl.org/dc/elements/1.1/"
   xmlns:cc="http://creativecommons.org/ns#"
   xmlns:rdf="http://www.w3.org/1999/02/22-rdf-syntax-ns#"
   xmlns:svg="http://www.w3.org/2000/svg"
   xmlns="http://www.w3.org/2000/svg"
   xmlns:xlink="http://www.w3.org/1999/xlink"
   id="svg5460"
   version="1.1"
   viewBox="0 0 57.541229 29.052344"
   height="109.80413"
   width="217.47867">
  <title
     id="title6019">Young Ess</title>
  <defs
     id="defs5454">
    <linearGradient
       gradientTransform="matrix(0.22509082,0,0,0.22509082,13.702252,161.71059)"
       gradientUnits="userSpaceOnUse"
       y2="-450.14548"
       x2="280.77249"
       y1="-450.14548"
       x1="27.358231"
       id="linearGradient5264"
       xlink:href="#linearGradient5289" />
    <linearGradient
       id="linearGradient5289">
      <stop
         id="stop5287"
         offset="0"
         style="stop-color:#cc0000;stop-opacity:1" />
    </linearGradient>
  </defs>
  <metadata
     id="metadata5457">
    <rdf:RDF>
      <cc:Work
         rdf:about="">
        <dc:format>image/svg+xml</dc:format>
        <dc:type
           rdf:resource="http://purl.org/dc/dcmitype/StillImage" />
        <dc:title>Young Ess</dc:title>
        <dc:creator>
          <cc:Agent>
            <dc:title>Malachi Brown</dc:title>
          </cc:Agent>
        </dc:creator>
      </cc:Work>
    </rdf:RDF>
  </metadata>
  <g
     transform="translate(-19.660339,-45.860708)"
     id="layer1">
    <path
       id="path5190"
       d="m 35.6641,74.679018 c -2.207279,-0.227534 -3.717177,-1.821159 -3.719777,-3.926057 -0.0013,-1.03083 0.331226,-2.06053 0.96584,-2.991001 0.439235,-0.644012 1.390946,-1.52995 2.140593,-1.992659 0.200017,-0.123457 0.242747,-0.168558 0.224787,-0.237241 -0.03443,-0.131683 0.05009,-0.838946 0.13919,-1.164611 0.188991,-0.690817 0.671083,-1.496825 1.274611,-2.131034 0.442495,-0.464984 0.812387,-0.769654 1.394267,-1.148427 l 0.449043,-0.292298 -0.328517,-5.29e-4 c -0.644208,-7.94e-4 -1.264457,-0.162973 -1.775132,-0.464664 -0.281104,-0.166068 -0.709356,-0.552662 -0.87276,-0.787866 l -0.08065,-0.116072 -0.320887,0.311647 c -0.408387,0.396637 -1.10558,0.861277 -1.765088,1.17634 -0.436602,0.208574 -1.85035,0.716066 -3.137957,1.126429 l -0.307326,0.09795 -0.275923,0.372034 c -0.151753,0.204611 -0.572203,0.809163 -0.934324,1.343444 -1.059712,1.563505 -1.771697,2.497817 -2.542054,3.335832 -1.043958,1.135626 -2.125045,1.89334 -3.229748,2.263646 -1.142304,0.382915 -2.317504,-0.05779 -2.80894,-1.053357 -0.210075,-0.425561 -0.290754,-0.795277 -0.292976,-1.342514 -0.0056,-1.386658 0.697818,-2.666074 1.976539,-3.594905 1.381488,-1.00348 2.762116,-1.598054 5.59844,-2.410989 l 0.967844,-0.277402 0.354502,-0.505167 c 0.369212,-0.526123 1.036561,-1.557864 1.036561,-1.602546 0,-0.01416 -0.07906,0.02273 -0.175681,0.08197 -1.437299,0.88115 -2.941811,1.034979 -4.164691,0.425823 -0.502394,-0.250261 -0.99695,-0.744852 -1.233027,-1.233117 -0.242527,-0.501597 -0.312674,-0.82705 -0.311508,-1.445241 0.002,-1.066348 0.261398,-1.774339 1.138366,-3.107125 0.536749,-0.815731 0.781711,-1.144206 2.062277,-2.765337 0.584808,-0.740339 1.133254,-1.455444 1.218768,-1.589125 0.274755,-0.429514 0.442447,-0.840891 0.463806,-1.137814 0.0178,-0.247624 0.01015,-0.281048 -0.0925,-0.403035 -0.10216,-0.121409 -0.132675,-0.133016 -0.349703,-0.133016 -0.130778,0 -0.32909,0.0277 -0.440699,0.06156 -0.254238,0.07713 -0.395176,0.07823 -0.571712,0.0044 -0.319773,-0.133617 -0.665686,-0.573402 -0.612121,-0.77824 0.02655,-0.101523 0.638418,-0.402045 1.04292,-0.512233 0.371559,-0.101219 1.200675,-0.100992 1.5708,5.29e-4 0.65393,0.179183 1.227882,0.627105 1.492618,1.164862 0.135795,0.275836 0.140192,0.300345 0.140192,0.781677 0,0.470231 -0.0072,0.513557 -0.13497,0.806937 -0.07423,0.170516 -0.272596,0.496044 -0.440806,0.723398 -0.816225,1.103209 -1.82268,2.544746 -3.001053,4.298365 -0.662996,0.986652 -1.01362,1.779167 -1.061011,2.398207 -0.02824,0.368922 0.03525,0.601893 0.219642,0.806001 0.41574,0.460171 1.272803,0.40014 2.157227,-0.151096 1.033091,-0.643895 2.602797,-2.113339 3.774161,-3.533077 0.304509,-0.36908 0.78297,-0.947134 1.063246,-1.284573 0.532226,-0.640765 0.671166,-0.85911 1.980671,-3.112545 0.330295,-0.568381 0.80608,-1.375471 1.057299,-1.793531 0.413348,-0.687864 0.472734,-0.767157 0.624784,-0.834237 0.271286,-0.119676 0.701871,-0.175736 1.157296,-0.15067 0.569362,0.03134 0.85022,0.138999 0.85022,0.325917 0,0.04229 -1.346901,2.333871 -2.993115,5.092406 -1.646208,2.758536 -3.128227,5.264823 -3.293375,5.569528 -0.165147,0.304704 -0.58788,1.042916 -0.939408,1.640469 -0.351531,0.597559 -0.63192,1.09369 -0.623091,1.102521 0.0088,0.0088 0.257789,-0.07526 0.553233,-0.186875 0.765426,-0.289158 1.853875,-0.846063 2.480011,-1.268896 l 0.537379,-0.362895 -0.01363,-0.474517 c -0.01672,-0.582708 0.06083,-1.122651 0.26112,-1.817966 0.493827,-1.714381 1.280187,-3.042779 2.552565,-4.312055 0.341583,-0.340748 0.554681,-0.518699 0.704919,-0.588647 0.333621,-0.155329 0.612913,-0.123918 0.687501,0.07732 0.0281,0.07582 -0.01397,0.140724 -0.262101,0.404611 -0.786417,0.836275 -1.410654,1.730815 -1.886433,2.703286 -0.539163,1.10204 -0.794644,2.042221 -0.797515,2.93492 -0.0036,1.117859 0.544481,1.874311 1.486167,2.051211 0.303745,0.05706 0.940073,0.02254 1.297739,-0.07039 0.408855,-0.106236 0.946507,-0.351399 1.329457,-0.606222 0.965401,-0.642398 2.480445,-2.633417 3.13168,-4.115541 0.408773,-0.930317 0.581964,-1.583526 0.581964,-2.194949 0,-0.50179 -0.08403,-0.760807 -0.324948,-1.00162 -0.389024,-0.388855 -0.993081,-0.385731 -1.824569,0.0095 -1.280496,0.608579 -2.478633,1.806631 -3.127703,3.127486 -0.164306,0.33437 -0.292952,0.547714 -0.330258,0.547714 -0.205431,0 -0.401849,-0.313587 -0.401326,-0.640723 0.0011,-0.54869 0.719434,-1.740093 1.602322,-2.656739 1.919436,-1.992826 3.974553,-2.517971 5.1088,-1.305457 0.685086,0.732361 0.872871,1.892086 0.524428,3.238802 -0.07941,0.306927 -0.139237,0.563361 -0.132937,0.569854 0.0204,0.02103 1.357387,-1.438386 1.637586,-1.78752 0.326879,-0.407299 0.449561,-0.648057 0.479872,-0.941734 0.02019,-0.19559 0.01048,-0.234788 -0.08659,-0.350163 -0.13993,-0.166298 -0.287944,-0.196844 -0.6448,-0.133069 -0.285227,0.05097 -0.288762,0.05047 -0.480791,-0.0688 -0.201898,-0.125397 -0.366059,-0.370129 -0.323194,-0.48183 0.02845,-0.07414 0.438439,-0.266105 0.739675,-0.346324 0.672166,-0.178999 1.491491,0.02935 1.90192,0.48364 0.247103,0.273513 0.331751,0.499859 0.331245,0.885759 -7.93e-4,0.538294 -0.0783,0.669758 -1.317614,2.232191 -0.98556,1.242515 -2.383594,3.121036 -2.587054,3.476192 -0.389302,0.679558 -0.517837,1.335479 -0.320029,1.633132 0.142637,0.214633 0.413073,0.336915 0.69206,0.312926 0.663845,-0.05708 1.463889,-0.619125 2.832103,-1.989601 1.069181,-1.070951 3.055363,-3.296449 3.795993,-4.253378 0.246525,-0.318524 0.812853,-1.022027 1.258504,-1.563341 0.921305,-1.119082 0.938334,-1.132076 1.443032,-1.101357 0.318553,0.01937 0.57863,0.126288 0.641165,0.263533 0.03724,0.08173 -0.03297,0.198995 -0.596239,0.995873 -2.279327,3.224686 -3.446211,5.028623 -4.087074,6.318393 -0.324887,0.653854 -0.35705,1.101997 -0.09661,1.346139 0.0942,0.08831 0.144455,0.100348 0.409808,0.0982 0.280792,-0.0024 0.333756,-0.0182 0.740148,-0.222695 0.240742,-0.121129 0.455914,-0.24217 0.478163,-0.268978 0.0265,-0.03192 0.02492,-0.104841 -0.0045,-0.211344 -0.02574,-0.09307 -0.03661,-0.339376 -0.0254,-0.575971 0.02365,-0.499131 0.174503,-0.931463 0.48919,-1.401961 0.838976,-1.254366 2.312379,-1.719766 3.534627,-1.116468 0.415404,0.205042 0.574704,0.345803 0.54142,0.47842 -0.06996,0.278751 -0.472681,0.543483 -0.83489,0.548822 -0.16595,0.0024 -0.248727,-0.02336 -0.413367,-0.128868 -0.391676,-0.250994 -0.789657,-0.258249 -1.228902,-0.02238 -0.265332,0.14247 -0.612098,0.515191 -0.780463,0.838874 -0.126997,0.244161 -0.138483,0.297003 -0.138692,0.638231 -1.35e-4,0.294484 0.01844,0.412499 0.08927,0.566163 0.270984,0.587825 1.103974,0.984525 1.801654,0.858012 0.493567,-0.0895 0.856409,-0.335946 1.292037,-0.877575 0.362363,-0.450532 0.544841,-0.749361 1.742599,-2.853727 1.73496,-3.048188 2.971607,-5.141413 3.362492,-5.691558 0.32028,-0.450779 0.725072,-0.8562 0.989636,-0.991172 0.408914,-0.208608 0.812634,-0.07303 1.006674,0.338077 0.275286,0.583234 0.263266,1.459492 -0.0478,3.484671 -0.754386,4.911355 -0.724096,4.672695 -0.599096,4.720662 0.09098,0.03491 0.202435,-0.10876 0.451514,-0.582031 0.109122,-0.207335 0.355229,-0.637397 0.546907,-0.955691 0.191669,-0.318294 0.692348,-1.209273 1.112618,-1.979946 1.148683,-2.10644 2.32234,-4.11938 2.774153,-4.757965 0.296389,-0.418917 0.871223,-0.991724 1.177179,-1.173025 0.315836,-0.187155 0.737007,-0.335865 0.949833,-0.33537 0.319244,7.94e-4 0.792782,0.284904 0.897975,0.538859 0.06901,0.166594 0.01593,0.216691 -0.301144,0.284252 -0.365249,0.07783 -0.772964,0.303652 -1.107972,0.613685 -0.2965,0.274397 -0.617169,0.6451 -0.617169,0.713465 0,0.01929 0.125558,-0.04144 0.279024,-0.134943 0.590984,-0.360066 1.517129,-0.739314 2.302264,-0.942758 0.800854,-0.207518 1.308854,-0.265041 2.3378,-0.264715 1.075095,5.29e-4 1.409266,0.05888 2.018594,0.353602 0.407117,0.196916 0.886055,0.62856 1.188378,1.071026 0.233371,0.34155 0.22714,0.413472 -0.06081,0.701415 -0.213572,0.213545 -0.362435,0.304958 -0.569067,0.349429 -0.145295,0.03127 -0.151119,0.02661 -0.355438,-0.284273 -0.07379,-0.112281 -0.152771,-0.209807 -0.175504,-0.21672 -0.02273,-0.0069 -0.133117,0.150055 -0.245295,0.348826 -0.112175,0.198771 -0.550801,0.947351 -0.974714,1.663515 -0.882052,1.490125 -1.355651,2.327762 -2.045036,3.616976 -0.800108,1.496275 -1.006769,1.869152 -1.431052,2.582096 -0.222777,0.374329 -0.4006,0.685038 -0.395171,0.690462 0.02658,0.02658 0.645969,-0.225838 1.143592,-0.466048 0.484717,-0.233976 1.217912,-0.686279 1.581404,-0.975551 0.156057,-0.124195 0.388134,-0.121906 0.490768,0.0048 0.13648,0.168548 0.101288,0.369779 -0.125407,0.717042 -0.544748,0.834472 -1.270574,1.281639 -3.035443,1.870088 l -1.040167,0.346819 -0.351361,0.492662 c -0.193252,0.270965 -0.541232,0.769607 -0.773282,1.108091 -1.442958,2.10476 -2.696507,3.247766 -3.897792,3.554071 -0.667043,0.170082 -1.374301,-0.06683 -1.703657,-0.570672 -0.228298,-0.349244 -0.289758,-0.548071 -0.312034,-1.009433 -0.02585,-0.535556 0.0577,-0.927539 0.301168,-1.412782 0.33298,-0.66366 0.766029,-1.084263 1.683948,-1.635559 0.744321,-0.447037 1.690783,-0.818785 3.168904,-1.244666 0.48926,-0.14097 0.823976,-0.258874 0.857039,-0.301892 0.09012,-0.117264 0.902358,-1.340014 1.007951,-1.517378 l 0.09844,-0.165349 -0.143005,0.112517 c -0.635926,0.500354 -1.448242,0.955487 -2.044504,1.145516 -0.767876,0.244727 -1.582084,0.279982 -1.984169,0.08592 -0.434554,-0.209735 -0.805984,-0.720349 -0.971161,-1.335069 l -0.05315,-0.1978 -0.171654,0.301141 c -0.275656,0.48359 -0.50972,0.807289 -0.819684,1.133602 -0.511358,0.538327 -1.059255,0.779838 -1.546948,0.681897 -0.129802,-0.02606 -0.298198,-0.08914 -0.374205,-0.140155 -0.180594,-0.121221 -0.368724,-0.406392 -0.456078,-0.691332 -0.17716,-0.577903 -0.02721,-2.080268 0.615899,-6.170499 0.105122,-0.668573 0.123907,-0.868873 0.08514,-0.907638 -0.03876,-0.03876 -0.06231,-0.03645 -0.106715,0.01048 -0.09763,0.103217 -0.888431,1.371518 -1.635548,2.623122 -0.393568,0.659323 -0.920869,1.524296 -1.171776,1.922166 -0.25091,0.397865 -0.60012,0.965216 -0.776021,1.260774 -0.377454,0.634212 -0.653687,1.031965 -0.931378,1.341109 -0.111167,0.123759 -0.174135,0.214456 -0.13993,0.201544 0.792768,-0.299225 1.578896,-0.459772 2.273342,-0.464275 0.639538,-0.0041 1.005425,0.08127 1.317975,0.307674 0.581697,0.421383 0.486365,1.312822 -0.26289,2.458278 -0.467056,0.714023 -1.370836,1.743522 -1.648693,1.878033 -0.488977,0.23671 -1.514571,0.09431 -1.514571,-0.210296 0,-0.04195 0.01659,-0.07627 0.03686,-0.07627 0.02029,0 0.265059,-0.218567 0.543962,-0.485707 0.774541,-0.741862 1.268868,-1.424233 1.424493,-1.966359 0.134712,-0.469273 0.01209,-0.574942 -0.539954,-0.46531 -1.180724,0.234493 -2.601936,0.877324 -3.522392,1.593229 -0.410031,0.318904 -1.124615,1.034766 -1.218634,1.220806 -0.204878,0.405399 -0.08711,0.691885 0.382077,0.929489 0.259672,0.131503 0.538334,0.218329 1.518218,0.47304 1.176727,0.30588 1.790655,0.597527 2.27402,1.08027 0.617006,0.61622 0.822116,1.597652 0.546986,2.617304 -0.120964,0.448299 -0.58457,1.370224 -0.937926,1.865164 -0.356399,0.499203 -1.081638,1.22578 -1.561807,1.564703 -0.962726,0.679525 -1.981361,0.998655 -3.182937,0.997197 -0.910442,-0.0013 -1.578809,-0.136862 -2.232194,-0.453391 -0.602031,-0.291652 -1.194356,-0.792138 -1.508962,-1.275003 -0.06193,-0.09506 -0.06295,-0.09434 -0.26666,0.186592 -0.290052,0.400021 -1.012219,1.104083 -1.449009,1.41268 -0.961364,0.679212 -1.980885,0.998659 -3.182586,0.997198 -0.899776,-0.0013 -1.612011,-0.144938 -2.235845,-0.451564 l -0.382842,-0.188174 -0.240789,0.20325 c -1.393402,1.176158 -3.773853,1.87211 -5.717927,1.671709 z m 1.907447,-1.608463 c 0.589187,-0.0599 0.964232,-0.140719 1.53974,-0.331761 0.46174,-0.153276 1.161336,-0.466805 1.459873,-0.654243 l 0.132646,-0.08329 -0.148942,-0.218657 c -0.471995,-0.692896 -0.742304,-1.741503 -0.636121,-2.467686 0.0809,-0.553286 0.342085,-1.216345 0.599754,-1.522569 0.141089,-0.167674 0.133655,-0.191868 -0.02832,-0.09214 -0.208838,0.128582 -0.752946,0.286949 -1.208394,0.351713 -1.279242,0.181909 -2.401737,-0.07313 -3.211801,-0.729731 l -0.110829,-0.08983 -0.333152,0.277876 c -1.11142,0.927005 -1.738167,2.053323 -1.738167,3.123636 0,0.690349 0.203197,1.200441 0.65869,1.653522 0.660501,0.657005 1.677168,0.920213 3.025024,0.783164 z m 7.293729,-1.27998 c 0.725242,-0.184989 1.600047,-0.73388 2.18244,-1.369365 0.962948,-1.050723 1.11851,-2.132811 0.398785,-2.773894 -0.257373,-0.229253 -0.556479,-0.354909 -1.444982,-0.607052 -1.216126,-0.34512 -1.83869,-0.660074 -2.27751,-1.152197 -0.486185,-0.545245 -0.597797,-1.132604 -0.362834,-1.909434 0.245124,-0.810422 1.030984,-1.675689 2.223773,-2.448476 0.876665,-0.567973 2.192727,-1.227439 2.945255,-1.47584 0.153461,-0.05066 0.279021,-0.09895 0.279021,-0.107328 0,-0.0084 -0.05315,-0.09522 -0.118107,-0.192982 -0.209656,-0.315537 -0.274593,-0.55063 -0.274593,-0.994109 0,-0.221644 -0.01349,-0.40301 -0.03005,-0.403034 -0.01654,-2.6e-5 -0.0624,0.04933 -0.101952,0.109686 -0.103098,0.15735 -1.014571,0.979873 -1.356127,1.22379 -0.558888,0.399116 -1.233268,0.665504 -1.824559,0.72072 -0.249518,0.02331 -0.267364,0.03153 -0.242808,0.111882 0.0598,0.195656 0.07069,0.645321 0.02074,0.857205 -0.05935,0.251841 -0.207584,0.569396 -0.361463,0.774321 -0.259676,0.345808 -1.35948,0.59535 -1.496394,0.339527 -0.03037,-0.05676 0.0072,-0.165658 0.16015,-0.464228 0.236514,-0.461682 0.282287,-0.666646 0.19535,-0.87472 -0.114282,-0.273513 -0.443892,-0.352467 -1.07264,-0.256937 -0.786979,0.119573 -1.722702,0.517187 -2.65368,1.127625 -1.351074,0.885891 -2.191504,1.782477 -2.421033,2.582789 -0.02939,0.102483 -0.02447,0.117625 0.03129,0.09623 0.153237,-0.0588 0.677749,-0.183298 0.972765,-0.230888 0.409993,-0.06614 1.369108,-0.03109 1.701853,0.06218 0.891355,0.249875 1.513276,0.878335 1.513276,1.529197 0,0.453715 -0.191992,0.91563 -0.531249,1.278133 l -0.15081,0.161139 0.197052,-0.132601 c 0.293777,-0.197694 0.618079,-0.29587 1.064096,-0.32213 0.660225,-0.03888 1.273521,0.163041 1.882637,0.619826 0.375872,0.281869 0.441754,0.410435 0.420796,0.821153 -0.01847,0.36172 -0.176453,0.737267 -0.368626,0.87622 l -0.110998,0.08026 -0.334954,-0.311179 c -0.42581,-0.395589 -0.748961,-0.572228 -1.098127,-0.600255 -0.31964,-0.02566 -0.430792,2.25e-4 -0.59641,0.139748 -0.407951,0.343268 -0.43016,1.083514 -0.05427,1.808951 0.218355,0.421407 0.717569,0.914527 1.127654,1.11389 0.170516,0.08289 0.412335,0.177591 0.53738,0.210429 0.3454,0.09072 1.037283,0.08188 1.429845,-0.01826 z m 8.639408,-0.868072 c 0.725244,-0.184991 1.600047,-0.733885 2.182442,-1.369369 0.962943,-1.050724 1.11851,-2.132812 0.398786,-2.773892 -0.257376,-0.229253 -0.55648,-0.354909 -1.444985,-0.607055 -0.418844,-0.118858 -0.922859,-0.285662 -1.120037,-0.370668 -1.142757,-0.492672 -1.732793,-1.278117 -1.630455,-2.170443 0.03889,-0.339108 0.16443,-0.740667 0.317812,-1.016561 0.394414,-0.709451 1.305721,-1.549929 2.324423,-2.14376 l 0.328983,-0.191772 -0.390986,-0.02582 c -0.707728,-0.04672 -1.267259,-0.254544 -1.761032,-0.654078 l -0.252023,-0.203919 -0.118073,0.12324 c -0.06494,0.06778 -0.208437,0.181226 -0.318889,0.252103 l -0.200819,0.128865 0.132665,0.103828 c 0.07296,0.0571 0.176664,0.198318 0.230441,0.313806 0.232804,0.499965 0.05232,1.204201 -0.541142,2.111484 -0.467055,0.71402 -1.370832,1.743522 -1.648695,1.878031 -0.488979,0.236709 -1.51457,0.09431 -1.51457,-0.210296 0,-0.04195 0.01659,-0.07627 0.03687,-0.07627 0.02027,0 0.265059,-0.21857 0.543962,-0.485709 0.774536,-0.741863 1.268867,-1.424231 1.424495,-1.966362 0.13471,-0.469268 0.01209,-0.574937 -0.539956,-0.465305 -1.180727,0.23449 -2.601936,0.877322 -3.522395,1.593226 -0.410028,0.318908 -1.124615,1.034767 -1.218632,1.220809 -0.204877,0.4054 -0.08711,0.691882 0.382077,0.929489 0.259673,0.131503 0.538335,0.218326 1.518219,0.473041 1.125297,0.29251 1.724308,0.567301 2.215759,1.01646 l 0.232722,0.212696 0.123232,-0.08775 c 0.21295,-0.151635 0.579618,-0.254407 0.994876,-0.27886 0.660225,-0.03888 1.273521,0.163042 1.88264,0.619829 0.37587,0.281868 0.441754,0.410432 0.420793,0.82115 -0.01847,0.361723 -0.17645,0.73727 -0.368625,0.876226 l -0.110996,0.08026 -0.334957,-0.311182 c -0.42581,-0.395586 -0.748956,-0.572225 -1.098129,-0.600252 -0.319638,-0.02566 -0.430787,2.25e-4 -0.596408,0.139748 -0.407953,0.343268 -0.43016,1.083513 -0.05427,1.808953 0.218353,0.421405 0.717569,0.914525 1.127652,1.113888 0.170513,0.08289 0.412337,0.177591 0.537381,0.210429 0.345398,0.09071 1.037281,0.08188 1.429843,-0.01826 z M 22.994571,66.979471 c 0.412069,-0.203661 1.042539,-0.68067 1.406147,-1.063892 0.507625,-0.535009 2.168183,-2.594042 2.169011,-2.689493 2.25e-4,-0.03729 -0.403849,0.113864 -1.136511,0.425011 -1.942034,0.824754 -3.0583,1.743901 -3.374996,2.779009 -0.09783,0.319738 -0.08234,0.489733 0.05835,0.640405 0.138145,0.147955 0.462474,0.114324 0.878003,-0.09104 z m 16.038481,-0.499698 c 0.430586,-0.06381 0.764734,-0.165208 0.764734,-0.232055 0,-0.145219 -0.938975,-0.207968 -1.507562,-0.100745 -0.48505,0.09147 -0.529132,0.117239 -0.354785,0.207398 0.104968,0.05428 0.468707,0.15493 0.663575,0.183616 0.01138,0.0019 0.206685,-0.02453 0.434038,-0.05821 z m 25.563429,-2.482172 c 0.484698,-0.225626 0.952156,-0.6417 1.600342,-1.424424 0.396621,-0.478944 0.977953,-1.240108 0.947124,-1.240108 -0.06279,0 -0.748668,0.28093 -1.176779,0.481994 -1.18545,0.556758 -1.945145,1.286055 -2.018612,1.93783 -0.03981,0.353184 0.211222,0.447992 0.647925,0.244708 z m -22.855863,-4.44196 c 0.215988,-0.04484 0.565677,-0.09391 0.777092,-0.109043 0.330086,-0.02363 0.380521,-0.03685 0.356963,-0.09361 -0.113991,-0.274664 -0.194794,-0.554053 -0.214003,-0.739947 L 42.63802,58.3939 42.178981,58.84193 c -0.252471,0.246414 -0.552048,0.525745 -0.665724,0.620733 -0.113673,0.09499 -0.197382,0.173112 -0.186012,0.173604 0.01138,5.29e-4 0.197384,-0.03579 0.413366,-0.08063 z m 25.962174,-1.795153 c 0.531903,-0.112758 1.199081,-0.464339 1.795545,-0.94619 0.626959,-0.506492 1.492191,-1.453968 2.177502,-2.384486 0.233989,-0.31772 1.266862,-2.043393 2.30069,-3.843896 0.512013,-0.89172 0.572902,-1.017291 0.511077,-1.054089 -0.04188,-0.02492 -0.436862,-0.04093 -0.979596,-0.03968 -0.78273,0.0018 -0.969868,0.01508 -1.343446,0.09535 -1.434962,0.308292 -2.679906,0.96739 -3.713782,1.966145 -1.33482,1.289486 -2.235282,2.976475 -2.406012,4.507603 -0.07968,0.714598 0.08864,1.316443 0.436488,1.560703 0.271148,0.190389 0.730936,0.242539 1.221534,0.13854 z"
       style="fill:url(#linearGradient5264);fill-opacity:1;fill-rule:nonzero;stroke-width:1" />
  </g>
</svg>
