<?xml version="1.0" encoding="UTF-8" standalone="no"?>
<!-- Created with Inkscape (http://www.inkscape.org/) -->

<svg
   xmlns:dc="http://purl.org/dc/elements/1.1/"
   xmlns:cc="http://creativecommons.org/ns#"
   xmlns:rdf="http://www.w3.org/1999/02/22-rdf-syntax-ns#"
   xmlns:svg="http://www.w3.org/2000/svg"
   xmlns="http://www.w3.org/2000/svg"
   xmlns:sodipodi="http://sodipodi.sourceforge.net/DTD/sodipodi-0.dtd"
   xmlns:inkscape="http://www.inkscape.org/namespaces/inkscape"
   width="34.395832mm"
   height="34.395832mm"
   viewBox="0 0 34.395832 34.395833"
   version="1.1"
   id="svg8"
   inkscape:version="0.92.4 (5da689c313, 2019-01-14)"
   sodipodi:docname="yng_ess+.svg"
   inkscape:export-filename="C:\Users\Dalia\Documents\Git\YoungEss\yng_ess.png"
   inkscape:export-xdpi="72"
   inkscape:export-ydpi="72">
  <defs
     id="defs2" />
  <sodipodi:namedview
     id="base"
     pagecolor="#ffffff"
     bordercolor="#666666"
     borderopacity="1.0"
     inkscape:pageopacity="0.0"
     inkscape:pageshadow="2"
     inkscape:zoom="2.8"
     inkscape:cx="83.392906"
     inkscape:cy="51.675453"
     inkscape:document-units="px"
     inkscape:current-layer="layer1"
     showgrid="true"
     inkscape:window-width="863"
     inkscape:window-height="1041"
     inkscape:window-x="-8"
     inkscape:window-y="0"
     inkscape:window-maximized="0"
     fit-margin-top="0"
     fit-margin-left="0"
     fit-margin-right="0"
     fit-margin-bottom="0"
     inkscape:showpageshadow="false">
    <inkscape:grid
       type="xygrid"
       id="grid815"
       originx="-71.437495"
       originy="-211.66668" />
  </sodipodi:namedview>
  <metadata
     id="metadata5">
    <rdf:RDF>
      <cc:Work
         rdf:about="">
        <dc:format>image/svg+xml</dc:format>
        <dc:type
           rdf:resource="http://purl.org/dc/dcmitype/StillImage" />
        <dc:title></dc:title>
      </cc:Work>
    </rdf:RDF>
  </metadata>
  <g
     inkscape:label="Layer 1"
     inkscape:groupmode="layer"
     id="layer1"
     transform="translate(-71.4375,-50.937496)">
    <path
       id="path844"
       transform="matrix(0.26458333,0,0,0.26458333,71.4375,50.937496)"
       style="opacity:1;fill:#7d8c6bff;fill-opacity:1;fill-rule:nonzero;stroke:none;stroke-width:50;stroke-linecap:round;stroke-miterlimit:4;stroke-dasharray:none;stroke-dashoffset:0;stroke-opacity:1;paint-order:stroke fill markers"
       d="m 90,0 v 45 h 10 20 v 60 H 90 v 10 15 h 40 V 115 105 45 35 10 0 h -10 -20 z m 10,10 h 20 V 35 H 100 Z M 0,0 v 35 10 c 10,0 20,0 30,0 v 60 H 0 c 0,8.33333 0,16.66667 0,25 h 40 c 0,-8.33333 0,-16.66667 0,-25 V 0 H 30 V 35 H 10 V 0 Z m 0,50 v 10 10 10 10 10 H 10 25 V 90 H 10 V 80 H 20 V 70 H 10 V 60 H 25 V 50 H 10 Z m 90,0 v 10 10 10 h 15 V 90 H 90 v 10 h 25 V 90 70 h -5 -10 V 60 h 15 V 50 h -15 z m -45,0 v 10 25 h 10 20 v 20 H 55 V 90 H 45 v 15 10 15 h 40 v -15 -5 -5 -30 H 75 55 V 60 H 75 V 70 H 85 V 60 50 H 75 55 Z M 45,0 V 45 H 55 V 15 L 75,45 H 85 V 0 H 75 V 30 L 55,0 Z"
       inkscape:connector-curvature="0" />
  </g>
</svg>
